<?xml version="1.0" encoding="utf-8"?>
<!-- Generator: Adobe Illustrator 17.0.0, SVG Export Plug-In . SVG Version: 6.00 Build 0)  -->
<!DOCTYPE svg PUBLIC "-//W3C//DTD SVG 1.1//EN" "http://www.w3.org/Graphics/SVG/1.1/DTD/svg11.dtd">
<svg version="1.1" id="Layer_1" xmlns="http://www.w3.org/2000/svg" xmlns:xlink="http://www.w3.org/1999/xlink" x="0px" y="0px"
	 width="100px" height="100px" viewBox="0 0 100 100" enable-background="new 0 0 100 100" xml:space="preserve">
<g>
	<circle fill="none" stroke="#CFD1D2" stroke-width="3" stroke-miterlimit="10" cx="50" cy="50" r="49"/>
	<polygon fill="#FFFFFF" points="29.212,43.34 29.212,56.661 16.61,50 	"/>
	<polygon fill="#FFFFFF" points="74.932,56.661 74.932,43.339 87.532,50 	"/>
	<line fill="none" stroke="#CFD1D2" stroke-miterlimit="10" x1="50" y1="62.714" x2="50" y2="99"/>
	<line fill="none" stroke="#CFD1D2" stroke-miterlimit="10" x1="50" y1="1.645" x2="50" y2="37.286"/>
	<g>
		<path fill="#00FF00" d="M50,37.286c-7.011,0-12.715,5.704-12.715,12.714c0,7.011,5.704,12.714,12.715,12.714
			c7.011,0,12.715-5.704,12.715-12.714C62.715,42.989,57.011,37.286,50,37.286z M50,61.125c-6.135,0-11.125-4.991-11.125-11.125
			S43.865,38.875,50,38.875c6.134,0,11.125,4.991,11.125,11.125S56.134,61.125,50,61.125z"/>
		<path fill="#00FF00" d="M50,52.384c1.314,0,2.384-1.069,2.384-2.384c0-1.034-0.667-1.908-1.589-2.237v-6.504
			c0-0.439-0.355-0.794-0.795-0.794c-0.439,0-0.795,0.355-0.795,0.794v6.504c-0.922,0.329-1.589,1.203-1.589,2.237
			C47.616,51.314,48.686,52.384,50,52.384z M50,49.206c0.438,0,0.795,0.356,0.795,0.794S50.438,50.794,50,50.794
			c-0.439,0-0.795-0.356-0.795-0.794S49.561,49.206,50,49.206z"/>
		<path fill="#00FF00" d="M42.054,50c0-0.439-0.355-0.794-0.795-0.794h-0.794c-0.44,0-0.795,0.355-0.795,0.794
			c0,0.439,0.355,0.794,0.795,0.794h0.794C41.698,50.794,42.054,50.439,42.054,50z"/>
		<path fill="#00FF00" d="M42.031,53.682l-0.688,0.397c-0.38,0.22-0.51,0.706-0.291,1.086c0.148,0.255,0.415,0.397,0.689,0.397
			c0.135,0,0.271-0.034,0.396-0.106l0.688-0.397c0.381-0.22,0.511-0.706,0.291-1.086C42.896,53.592,42.41,53.462,42.031,53.682z"/>
		<path fill="#00FF00" d="M53.973,55.562h-7.945c-0.44,0-0.795,0.355-0.795,0.795c0,0.439,0.355,0.794,0.795,0.794h7.945
			c0.44,0,0.795-0.355,0.795-0.794C54.768,55.918,54.412,55.562,53.973,55.562z"/>
		<path fill="#00FF00" d="M42.827,44.941l-0.689-0.397c-0.379-0.219-0.865-0.089-1.086,0.291c-0.219,0.38-0.089,0.866,0.291,1.085
			l0.689,0.397c0.124,0.072,0.261,0.106,0.396,0.106c0.274,0,0.541-0.143,0.688-0.397C43.337,45.646,43.207,45.161,42.827,44.941z"
			/>
		<path fill="#00FF00" d="M46.025,43.119c0.381-0.219,0.512-0.706,0.293-1.085l-0.398-0.689c-0.218-0.38-0.704-0.512-1.084-0.292
			c-0.381,0.219-0.512,0.706-0.293,1.085l0.397,0.689c0.147,0.255,0.415,0.398,0.69,0.398C45.765,43.226,45.9,43.191,46.025,43.119z
			"/>
		<path fill="#00FF00" d="M55.164,41.053c-0.379-0.22-0.866-0.089-1.086,0.292l-0.396,0.689c-0.219,0.379-0.088,0.866,0.293,1.085
			c0.125,0.072,0.26,0.106,0.395,0.106c0.275,0,0.543-0.143,0.689-0.398l0.397-0.689C55.676,41.759,55.545,41.272,55.164,41.053z"/>
		<path fill="#00FF00" d="M57.57,46.425c0.135,0,0.271-0.034,0.396-0.106l0.689-0.398c0.38-0.22,0.51-0.706,0.291-1.085
			c-0.221-0.381-0.707-0.51-1.086-0.291l-0.689,0.398c-0.38,0.22-0.511,0.706-0.291,1.085C57.028,46.283,57.295,46.425,57.57,46.425
			z"/>
		<path fill="#00FF00" d="M59.535,49.206H58.74c-0.439,0-0.795,0.355-0.795,0.794c0,0.439,0.355,0.794,0.795,0.794h0.795
			c0.44,0,0.795-0.355,0.795-0.794C60.33,49.561,59.975,49.206,59.535,49.206z"/>
		<path fill="#00FF00" d="M58.654,54.08l-0.689-0.397c-0.381-0.22-0.867-0.088-1.084,0.292c-0.221,0.38-0.089,0.866,0.291,1.085
			l0.689,0.397c0.125,0.072,0.262,0.106,0.396,0.106c0.274,0,0.542-0.143,0.689-0.398C59.166,54.784,59.034,54.298,58.654,54.08z"/>
	</g>
</g>
</svg>
