<?xml version="1.0" encoding="utf-8"?>
<!-- Generator: Adobe Illustrator 17.0.0, SVG Export Plug-In . SVG Version: 6.00 Build 0)  -->
<!DOCTYPE svg PUBLIC "-//W3C//DTD SVG 1.1//EN" "http://www.w3.org/Graphics/SVG/1.1/DTD/svg11.dtd">
<svg version="1.1" id="Layer_1" xmlns="http://www.w3.org/2000/svg" xmlns:xlink="http://www.w3.org/1999/xlink" x="0px" y="0px"
	 width="100px" height="100px" viewBox="0 0 100 100" enable-background="new 0 0 100 100" xml:space="preserve">
<g>
	<circle fill="none" stroke="#CFD1D2" stroke-width="2.9184" stroke-miterlimit="10" cx="49.538" cy="50" r="47.667"/>
	<g id="Shuffle_x5F_2_23_">
		<g>
			<path fill="#00FF00" d="M61.627,36.299c-7.555,0-13.7,6.146-13.7,13.702c0,5.777-4.701,10.477-10.477,10.477
				s-10.477-4.7-10.477-10.477c0-5.505,4.271-10.022,9.671-10.438v4.796c0,0.593,0.328,1.14,0.852,1.42
				c0.237,0.128,0.499,0.192,0.761,0.192c0.312,0,0.623-0.091,0.893-0.272l9.671-6.447c0.448-0.299,0.718-0.801,0.718-1.341
				c0-0.538-0.27-1.04-0.718-1.34l-9.671-6.449c-0.496-0.332-1.131-0.36-1.654-0.078c-0.524,0.28-0.852,0.826-0.852,1.42v4.878
				c-7.178,0.42-12.894,6.377-12.894,13.66c0,7.554,6.146,13.699,13.701,13.699s13.7-6.145,13.7-13.699
				c0-5.778,4.701-10.478,10.477-10.478s10.477,4.7,10.477,10.478c0,5.504-4.271,10.022-9.671,10.436v-4.796
				c0-0.593-0.328-1.14-0.852-1.421c-0.523-0.28-1.16-0.249-1.655,0.082l-9.67,6.446c-0.448,0.299-0.718,0.803-0.718,1.341
				c0,0.54,0.27,1.042,0.718,1.343l9.67,6.446c0.271,0.181,0.583,0.272,0.895,0.272c0.261,0,0.523-0.065,0.76-0.19
				c0.524-0.282,0.852-0.828,0.852-1.423V63.66c7.179-0.42,12.894-6.378,12.894-13.659C75.327,42.445,69.181,36.299,61.627,36.299z
				 M39.867,34.476l5.153,3.435l-5.153,3.436V34.476z M59.209,65.524l-5.153-3.436l5.153-3.435V65.524z"/>
		</g>
	</g>
	
		<line fill="none" stroke="#CFD1D2" stroke-width="2.9184" stroke-linecap="round" stroke-miterlimit="10" x1="83.031" y1="16.508" x2="16.045" y2="83.492"/>
</g>
</svg>
