<?xml version="1.0" encoding="utf-8"?>
<!-- Generator: Adobe Illustrator 17.0.0, SVG Export Plug-In . SVG Version: 6.00 Build 0)  -->
<!DOCTYPE svg PUBLIC "-//W3C//DTD SVG 1.1//EN" "http://www.w3.org/Graphics/SVG/1.1/DTD/svg11.dtd">
<svg version="1.1" id="Layer_1" xmlns="http://www.w3.org/2000/svg" xmlns:xlink="http://www.w3.org/1999/xlink" x="0px" y="0px"
	 width="100px" height="100px" viewBox="0 0 100 100" enable-background="new 0 0 100 100" xml:space="preserve">
<g>
	<circle fill="none" stroke="#CFD1D2" stroke-width="3" stroke-miterlimit="10" cx="50" cy="49.206" r="49"/>
	<polygon fill="#FFFFFF" points="43.34,69.994 56.66,69.994 50,82.595 	"/>
	<polygon fill="#FFFFFF" points="56.66,27.275 43.34,27.275 50,14.675 	"/>
	<line fill="none" stroke="#CFD1D2" stroke-miterlimit="10" x1="1" y1="49.206" x2="38.389" y2="49.206"/>
	<line fill="none" stroke="#CFD1D2" stroke-miterlimit="10" x1="61.995" y1="49.206" x2="99" y2="49.206"/>
	<g>
		<path fill="#00FF00" d="M62.713,48.916c-0.036-0.094-3.723-9.287-12.714-9.287s-12.677,9.193-12.713,9.287
			c-0.071,0.186-0.071,0.393,0,0.579c0.036,0.093,3.722,9.286,12.713,9.286s12.678-9.193,12.714-9.286
			C62.785,49.309,62.785,49.102,62.713,48.916z M49.999,57.185c-7.136,0-10.439-6.491-11.103-7.979
			c0.663-1.488,3.967-7.979,11.103-7.979c7.136,0,10.439,6.491,11.103,7.979C60.438,50.694,57.135,57.185,49.999,57.185z"/>
		<path fill="#00FF00" d="M49.999,44.417c-2.644,0-4.787,2.145-4.787,4.788c0,2.645,2.144,4.787,4.787,4.787
			c2.645,0,4.788-2.143,4.788-4.787C54.787,46.562,52.644,44.417,49.999,44.417z M49.999,52.397c-1.762,0-3.192-1.429-3.192-3.191
			c0-1.762,1.431-3.191,3.192-3.191c1.762,0,3.192,1.43,3.192,3.191C53.191,50.968,51.761,52.397,49.999,52.397z"/>
	</g>
</g>
</svg>
