<?xml version="1.0" encoding="utf-8"?>
<!-- Generator: Adobe Illustrator 17.0.0, SVG Export Plug-In . SVG Version: 6.00 Build 0)  -->
<!DOCTYPE svg PUBLIC "-//W3C//DTD SVG 1.1//EN" "http://www.w3.org/Graphics/SVG/1.1/DTD/svg11.dtd">
<svg version="1.1" id="Layer_1" xmlns="http://www.w3.org/2000/svg" xmlns:xlink="http://www.w3.org/1999/xlink" x="0px" y="0px"
	 width="100px" height="100px" viewBox="0 0 100 100" enable-background="new 0 0 100 100" xml:space="preserve">
<g>
	<circle fill="none" stroke="#CFD1D2" stroke-width="3" stroke-miterlimit="10" cx="50" cy="50" r="49"/>
	<g>
		<g id="Shape_76_23_">
			<g>
				<path fill="#00FF00" d="M51.557,62.555c6.108,0,11.078-6.047,11.078-13.479s-4.97-13.477-11.078-13.477
					c-3.021,0-5.844,1.445-7.942,4.068c-2.023,2.529-3.136,5.87-3.135,9.409C40.479,56.508,45.448,62.555,51.557,62.555z
					 M51.557,38.552c4.479,0,8.123,4.722,8.123,10.523c0,5.804-3.644,10.526-8.123,10.526s-8.123-4.723-8.126-10.526
					C43.431,43.273,47.075,38.552,51.557,38.552z M60.86,61.077c-0.816,0-1.477,0.661-1.477,1.477c0,0.815,0.66,1.478,1.477,1.478
					c5.049,0,9.159,4.108,9.159,9.157c0,0.65-0.531,1.182-1.183,1.182H34.273c-0.65,0-1.18-0.531-1.18-1.182
					c0-5.049,4.108-9.157,9.156-9.157c0.817,0,1.478-0.662,1.478-1.478c0-0.816-0.661-1.477-1.478-1.477
					c-6.678,0-12.11,5.433-12.11,12.112c0,2.281,1.856,4.136,4.134,4.136h34.564c2.28,0,4.137-1.854,4.137-4.136
					C72.974,66.511,67.541,61.077,60.86,61.077z M52.638,33.956c1.057-0.626,2.185-0.941,3.351-0.941
					c4.478,0,8.123,4.721,8.123,10.522c0,1.041-0.115,2.062-0.345,3.037c-0.185,0.795,0.309,1.59,1.102,1.775
					c0.112,0.027,0.226,0.039,0.339,0.039c0.67,0,1.275-0.458,1.437-1.14c0.28-1.196,0.423-2.444,0.423-3.712
					c0-7.432-4.97-13.478-11.078-13.478c-1.68,0-3.356,0.468-4.855,1.354c-0.702,0.416-0.934,1.321-0.518,2.023
					C51.03,34.139,51.937,34.372,52.638,33.956z M65.589,55.169c-0.815,0-1.478,0.661-1.478,1.478c0,0.815,0.662,1.476,1.478,1.476
					c5.05,0,8.862,4.208,8.862,9.258c0,0.169-0.034,0.332-0.101,0.481c-0.331,0.746,0.003,1.618,0.749,1.951
					c0.195,0.086,0.398,0.127,0.6,0.127c0.566,0,1.105-0.326,1.352-0.878c0.234-0.531,0.354-1.096,0.354-1.682
					C77.405,60.701,72.269,55.169,65.589,55.169z"/>
			</g>
		</g>
		<g>
			<g>
				<line fill="none" stroke="#FFFFFF" stroke-miterlimit="10" x1="30.14" y1="26.749" x2="30.14" y2="39.671"/>
				<line fill="none" stroke="#FFFFFF" stroke-miterlimit="10" x1="23.679" y1="33.21" x2="36.602" y2="33.21"/>
			</g>
			<circle fill="none" stroke="#FFFFFF" stroke-miterlimit="10" cx="30.14" cy="33.21" r="10.536"/>
		</g>
	</g>
</g>
</svg>
