<?xml version="1.0" encoding="utf-8"?>
<!-- Generator: Adobe Illustrator 17.0.0, SVG Export Plug-In . SVG Version: 6.00 Build 0)  -->
<!DOCTYPE svg PUBLIC "-//W3C//DTD SVG 1.1//EN" "http://www.w3.org/Graphics/SVG/1.1/DTD/svg11.dtd">
<svg version="1.1" id="Layer_1" xmlns="http://www.w3.org/2000/svg" xmlns:xlink="http://www.w3.org/1999/xlink" x="0px" y="0px"
	 width="100px" height="100px" viewBox="0 0 100 100" enable-background="new 0 0 100 100" xml:space="preserve">
<g>
	<circle fill="none" stroke="#CFD1D2" stroke-width="3" stroke-miterlimit="10" cx="50" cy="50" r="49"/>
	<g id="Trash_x5F_Can_21_">
		<g>
			<path fill="#00FF00" d="M69.427,29.157H55.978c0-0.826-0.669-1.495-1.494-1.495h-8.967c-0.826,0-1.494,0.669-1.494,1.495H30.573
				c-2.473,0-4.483,2.01-4.483,4.482v2.989c0,0.824,0.668,1.494,1.495,1.494h4.482V71c0,2.472,2.011,4.482,4.483,4.482h26.898
				c2.473,0,4.483-2.011,4.483-4.482V38.123h4.482c0.826,0,1.494-0.67,1.494-1.494V33.64C73.909,31.167,71.9,29.157,69.427,29.157z
				 M64.943,71c0,0.822-0.67,1.495-1.494,1.495H36.551c-0.825,0-1.494-0.673-1.494-1.495V38.123h29.887V71z M70.921,35.134H29.078
				V33.64c0-0.824,0.67-1.493,1.495-1.493h38.854c0.825,0,1.494,0.669,1.494,1.493V35.134z M41.033,69.505
				c0.826,0,1.495-0.67,1.495-1.494V45.595c0-0.825-0.669-1.494-1.495-1.494c-0.825,0-1.494,0.669-1.494,1.494v22.416
				C39.539,68.835,40.208,69.505,41.033,69.505z M47.011,69.505c0.826,0,1.494-0.67,1.494-1.494V45.595
				c0-0.825-0.668-1.494-1.494-1.494c-0.826,0-1.494,0.669-1.494,1.494v22.416C45.517,68.835,46.185,69.505,47.011,69.505z
				 M52.988,69.505c0.827,0,1.495-0.67,1.495-1.494V45.595c0-0.825-0.668-1.494-1.495-1.494c-0.826,0-1.493,0.669-1.493,1.494
				v22.416C51.495,68.835,52.162,69.505,52.988,69.505z M58.967,69.505c0.825,0,1.494-0.67,1.494-1.494V45.595
				c0-0.825-0.669-1.494-1.494-1.494c-0.827,0-1.495,0.669-1.495,1.494v22.416C57.472,68.835,58.14,69.505,58.967,69.505z"/>
		</g>
	</g>
</g>
</svg>
