<?xml version="1.0" encoding="utf-8"?>
<!-- Generator: Adobe Illustrator 19.0.0, SVG Export Plug-In . SVG Version: 6.00 Build 0)  -->
<!DOCTYPE svg PUBLIC "-//W3C//DTD SVG 1.1//EN" "http://www.w3.org/Graphics/SVG/1.1/DTD/svg11.dtd">
<svg version="1.1" xmlns="http://www.w3.org/2000/svg" xmlns:xlink="http://www.w3.org/1999/xlink" x="0px" y="0px"
	 viewBox="0 0 399.5 400" style="enable-background:new 0 0 399.5 400;" xml:space="preserve">
<style type="text/css">
	.st0{opacity:0.5;}
	.st1{fill:#FFFFFF;}
</style>
<g id="Background">
</g>
<g id="Logos">
	<g>
		<g>
			<g class="st0">
				<path class="st1" d="M153.2,188.9v2.8H151v-9.9c1.6,0,3.1,0,4.7,0c2.5,0,3.8,1.6,3.8,3.6c0,2-1.3,3.5-3.8,3.6H153.2z
					 M153.2,186.9h2.5c1.1,0,1.6-0.7,1.6-1.5c0-0.8-0.5-1.5-1.6-1.5h-2.5V186.9z"/>
				<path class="st1" d="M165.9,192c-3.2,0-5.4-2-5.4-5.2s2.2-5.2,5.4-5.2c3.2,0,5.4,2,5.4,5.2S169.1,192,165.9,192z M165.9,183.5
					c-1.9,0-3.2,1.4-3.2,3.2c0,1.9,1.3,3.2,3.2,3.2c1.9,0,3.2-1.4,3.2-3.2C169.1,184.9,167.8,183.5,165.9,183.5z"/>
				<path class="st1" d="M183.2,191.7h-1.8l-2.1-5.5l-2.1,5.5h-1.8l-3.7-9.9h2.5l1.2,3.4l0.9,3.2l2.2-6.6h1.4l2.3,6.6l0.9-3.2
					l1.2-3.4h2.5L183.2,191.7z"/>
				<path class="st1" d="M195.7,191.7h-7.6c0-3.3,0-6.6,0-9.9h7.4v2h-5.2v1.9h4.9v1.9h-4.9v2h5.4V191.7z"/>
				<path class="st1" d="M206.4,191.7h-2.5l-2.5-3.3h-1.6v3.3h-2.2v-9.9c1.6,0,3.1,0,4.7,0c2.4,0,3.7,1.6,3.7,3.3
					c0,1.3-0.4,2.4-2.3,3.1l2.7,3.3V191.7z M199.8,183.7v2.9h2.5c1,0,1.5-0.8,1.5-1.4c0-0.7-0.5-1.5-1.5-1.5H199.8z"/>
				<path class="st1" d="M215.6,191.7H208c0-3.3,0-6.6,0-9.9h7.4v2h-5.2v1.9h4.9v1.9h-4.9v2h5.4V191.7z"/>
				<path class="st1" d="M221.5,181.8c3.4,0,4.9,2.3,4.9,4.9c0,2.6-1.5,5-4.9,5c-1.2,0-2.8,0-4.1,0v-9.9H221.5z M219.6,189.7h1.9
					c2.2,0,2.8-1.6,2.8-3c0-1.4-0.7-2.9-2.8-2.9h-1.9V189.7z"/>
				<path class="st1" d="M236.7,181.8c1.9,0,3.4,0.9,3.4,2.7c0,0.8-0.4,1.6-1.3,2c1.3,0.5,1.8,1.7,1.6,2.9c-0.3,1.6-1.6,2.3-3.6,2.3
					c-1.6,0-3.4,0-5,0v-9.9H236.7z M233.9,185.7h2.7c0.9,0,1.3-0.4,1.3-0.9c0-0.6-0.4-1-1.3-1h-2.7V185.7z M233.9,189.8h2.7
					c1,0,1.5-0.4,1.5-1.1s-0.5-1.2-1.5-1.2c-0.9,0-1.8,0-2.7,0V189.8z"/>
				<path class="st1" d="M245.6,185.7l2.5-3.9h2.5v0.1l-4,5.9v3.9h-2.2v-3.9l-3.8-5.9v-0.1h2.6L245.6,185.7z"/>
			</g>
		</g>
		<g>
			<path class="st1" d="M165.9,202.4c-1.6-1.5-3.5-1.9-5-1.9c-3.6,0-5.9,2.1-5.9,6.4c0,2.8,1.5,6.3,5.9,6.3c1.2,0,3-0.2,4.2-1.1
				v-2.8h-5.6v-4.9h10.7v9.8c-1.4,2.8-5.2,4.3-9.5,4.3c-8.7,0-12-5.8-12-11.6c0-5.7,3.8-11.7,12-11.7c3,0,5.7,0.6,8.6,3.5
				L165.9,202.4z"/>
			<path class="st1" d="M173.3,217.8v-22h6.2v22H173.3z"/>
			<path class="st1" d="M189.6,211.9v5.9h-6.2v-22H194c5.9,0,8.8,3.7,8.8,8c0,4.5-3,8-8.8,8H189.6z M189.6,206.7h4.5
				c1.7,0,2.6-1.3,2.6-2.7c0-1.4-0.9-2.8-2.6-2.8h-4.5V206.7z"/>
			<path class="st1" d="M219.3,217.9v-8.3h-7.9v8.3h-6.2v-22h6.2v8.4h7.9v-8.4h6.2v22H219.3z"/>
			<path class="st1" d="M238.9,203.4l4.7-7.5h7v0.3l-8.7,12.9v8.8h-6.2v-8.8l-8.4-13v-0.3h7L238.9,203.4z"/>
		</g>
	</g>
</g>
</svg>
