<?xml version="1.0" encoding="UTF-8" standalone="no"?>
<!-- Created with Inkscape (http://www.inkscape.org/) -->

<svg
   xmlns:dc="http://purl.org/dc/elements/1.1/"
   xmlns:cc="http://creativecommons.org/ns#"
   xmlns:rdf="http://www.w3.org/1999/02/22-rdf-syntax-ns#"
   xmlns:svg="http://www.w3.org/2000/svg"
   xmlns="http://www.w3.org/2000/svg"
   xmlns:sodipodi="http://sodipodi.sourceforge.net/DTD/sodipodi-0.dtd"
   xmlns:inkscape="http://www.inkscape.org/namespaces/inkscape"
   width="35.630558mm"
   height="35.630558mm"
   viewBox="0 0 126.25 126.25"
   id="svg7120"
   version="1.1"
   inkscape:version="0.91 r"
   sodipodi:docname="girar_1.svg">
  <defs
     id="defs7122" />
  <sodipodi:namedview
     id="base"
     pagecolor="#ffffff"
     bordercolor="#666666"
     borderopacity="1.0"
     inkscape:pageopacity="0.0"
     inkscape:pageshadow="2"
     inkscape:zoom="1.979899"
     inkscape:cx="43.277331"
     inkscape:cy="145.82326"
     inkscape:document-units="px"
     inkscape:current-layer="layer1"
     showgrid="false"
     inkscape:window-width="1362"
     inkscape:window-height="737"
     inkscape:window-x="0"
     inkscape:window-y="25"
     inkscape:window-maximized="1"
     fit-margin-top="0"
     fit-margin-left="0"
     fit-margin-right="0"
     fit-margin-bottom="0" />
  <metadata
     id="metadata7125">
    <rdf:RDF>
      <cc:Work
         rdf:about="">
        <dc:format>image/svg+xml</dc:format>
        <dc:type
           rdf:resource="http://purl.org/dc/dcmitype/StillImage" />
        <dc:title></dc:title>
      </cc:Work>
    </rdf:RDF>
  </metadata>
  <g
     inkscape:label="Layer 1"
     inkscape:groupmode="layer"
     id="layer1"
     transform="translate(-4503.4384,1135.6504)">
    <path
       inkscape:connector-curvature="0"
       id="path1702"
       style="fill:none;stroke:#cfd1d2;stroke-width:3.75;stroke-linecap:butt;stroke-linejoin:miter;stroke-miterlimit:10;stroke-dasharray:none;stroke-opacity:1"
       d="m 4627.8134,-1072.5254 c 0,33.8275 -27.4212,61.25 -61.25,61.25 -33.8287,0 -61.25,-27.4225 -61.25,-61.25 0,-33.8275 27.4213,-61.25 61.25,-61.25 33.8288,0 61.25,27.4225 61.25,61.25 z" />
    <path
       inkscape:connector-curvature="0"
       id="path1706"
       style="fill:#00ff00;fill-opacity:1;fill-rule:nonzero;stroke:none"
       d="m 4578.9902,-1052.5773 -6.6213,-4.415 6.6213,-4.4137 0,8.8287 z m -24.8538,-39.8962 6.6213,4.4137 -6.6213,4.415 0,-8.8287 z m 27.96,2.3425 c -9.7075,0 -17.6037,7.8975 -17.6037,17.6062 0,7.4238 -6.04,13.4638 -13.4625,13.4638 -7.4238,0 -13.4638,-6.04 -13.4638,-13.4638 0,-7.0725 5.4888,-12.8775 12.4275,-13.4112 l 0,6.1625 c 0,0.7625 0.4213,1.465 1.095,1.825 0.305,0.1637 0.64,0.2462 0.9775,0.2462 0.4,0 0.8013,-0.1175 1.1475,-0.35 l 12.4263,-8.2837 c 0.5762,-0.385 0.9237,-1.03 0.9237,-1.7238 0,-0.6912 -0.3475,-1.3375 -0.9237,-1.7212 l -12.4263,-8.2875 c -0.6375,-0.4263 -1.4537,-0.4625 -2.125,-0.1 -0.6737,0.3587 -1.095,1.0612 -1.095,1.8237 l 0,6.2675 c -9.2237,0.5413 -16.5687,8.195 -16.5687,17.5525 0,9.7075 7.8962,17.6038 17.605,17.6038 9.7075,0 17.6037,-7.8963 17.6037,-17.6038 0,-7.4237 6.04,-13.4637 13.4625,-13.4637 7.4238,0 13.4638,6.04 13.4638,13.4637 0,7.0738 -5.4888,12.8788 -12.4275,13.4113 l 0,-6.1638 c 0,-0.7625 -0.42,-1.465 -1.095,-1.8262 -0.6725,-0.36 -1.49,-0.32 -2.1263,0.105 l -12.425,8.2825 c -0.5762,0.3837 -0.9225,1.0312 -0.9225,1.7237 0,0.6925 0.3463,1.3388 0.9225,1.725 l 12.425,8.2825 c 0.3488,0.2325 0.75,0.35 1.15,0.35 0.3363,0 0.6713,-0.084 0.9763,-0.245 0.675,-0.3612 1.095,-1.0637 1.095,-1.8287 l 0,-6.2638 c 9.225,-0.54 16.5687,-8.195 16.5687,-17.5525 0,-9.7087 -7.8975,-17.6062 -17.605,-17.6062" />
    <path
       inkscape:connector-curvature="0"
       id="path1710"
       style="fill:none;stroke:#cfd1d2;stroke-width:3.75;stroke-linecap:round;stroke-linejoin:miter;stroke-miterlimit:10;stroke-dasharray:none;stroke-opacity:1"
       d="m 4609.6006,-1115.5619 -86.0738,86.0725" />
  </g>
</svg>
