<?xml version="1.0" encoding="UTF-8" standalone="no"?>
<!-- Created with Inkscape (http://www.inkscape.org/) -->

<svg
   xmlns:dc="http://purl.org/dc/elements/1.1/"
   xmlns:cc="http://creativecommons.org/ns#"
   xmlns:rdf="http://www.w3.org/1999/02/22-rdf-syntax-ns#"
   xmlns:svg="http://www.w3.org/2000/svg"
   xmlns="http://www.w3.org/2000/svg"
   xmlns:sodipodi="http://sodipodi.sourceforge.net/DTD/sodipodi-0.dtd"
   xmlns:inkscape="http://www.inkscape.org/namespaces/inkscape"
   width="35.630554mm"
   height="35.630554mm"
   viewBox="0 0 126.24999 126.24999"
   id="svg7120"
   version="1.1"
   inkscape:version="0.91 r"
   sodipodi:docname="mirar_1.svg">
  <defs
     id="defs7122" />
  <sodipodi:namedview
     id="base"
     pagecolor="#ffffff"
     bordercolor="#666666"
     borderopacity="1.0"
     inkscape:pageopacity="0.0"
     inkscape:pageshadow="2"
     inkscape:zoom="1.4"
     inkscape:cx="67.616795"
     inkscape:cy="74.364581"
     inkscape:document-units="px"
     inkscape:current-layer="layer1"
     showgrid="false"
     inkscape:window-width="1362"
     inkscape:window-height="737"
     inkscape:window-x="0"
     inkscape:window-y="25"
     inkscape:window-maximized="1"
     fit-margin-top="0"
     fit-margin-left="0"
     fit-margin-right="0"
     fit-margin-bottom="0" />
  <metadata
     id="metadata7125">
    <rdf:RDF>
      <cc:Work
         rdf:about="">
        <dc:format>image/svg+xml</dc:format>
        <dc:type
           rdf:resource="http://purl.org/dc/dcmitype/StillImage" />
        <dc:title></dc:title>
      </cc:Work>
    </rdf:RDF>
  </metadata>
  <g
     inkscape:label="Layer 1"
     inkscape:groupmode="layer"
     id="layer1"
     transform="translate(-268.37455,-420.46334)">
    <path
       inkscape:connector-curvature="0"
       id="path1786"
       style="fill:none;stroke:#cfd1d2;stroke-width:3.75;stroke-linecap:butt;stroke-linejoin:miter;stroke-miterlimit:10;stroke-dasharray:none;stroke-opacity:1"
       d="m 331.49955,422.33834 c 33.8275,0 61.25,27.42125 61.25,61.25 0,33.82875 -27.4225,61.25 -61.25,61.25 -33.8275,0 -61.25,-27.42125 -61.25,-61.25 0,-33.82875 27.4225,-61.25 61.25,-61.25 z" />
    <path
       inkscape:connector-curvature="0"
       id="path1790"
       style="fill:#ffffff;fill-opacity:1;fill-rule:nonzero;stroke:none"
       d="m 323.17442,509.57347 16.65,0 -8.325,15.7525 -8.325,-15.7525 z" />
    <path
       inkscape:connector-curvature="0"
       id="path1794"
       style="fill:#ffffff;fill-opacity:1;fill-rule:nonzero;stroke:none"
       d="m 339.8248,456.17559 -16.65,0 8.325,-15.75125 8.325,15.75125 z" />
    <path
       inkscape:connector-curvature="0"
       id="path1798"
       style="fill:none;stroke:#cfd1d2;stroke-width:1.25;stroke-linecap:butt;stroke-linejoin:miter;stroke-miterlimit:10;stroke-dasharray:none;stroke-opacity:1"
       d="m 270.24955,483.58834 46.73625,0" />
    <path
       inkscape:connector-curvature="0"
       id="path1802"
       style="fill:none;stroke:#cfd1d2;stroke-width:1.25;stroke-linecap:butt;stroke-linejoin:miter;stroke-miterlimit:10;stroke-dasharray:none;stroke-opacity:1"
       d="m 346.49343,483.58834 46.25624,0" />
    <path
       inkscape:connector-curvature="0"
       id="path1806"
       style="fill:#00ff00;fill-opacity:1;fill-rule:nonzero;stroke:none"
       d="m 331.4983,493.56271 c -8.92,0 -13.04875,-8.11375 -13.87875,-9.97375 0.83,-1.86125 4.95875,-9.975 13.87875,-9.975 8.92,0 13.04875,8.11375 13.87875,9.975 -0.83,1.86 -4.95875,9.97375 -13.87875,9.97375 m 15.8925,-10.33625 c -0.045,-0.11625 -4.65375,-11.60875 -15.8925,-11.60875 -11.23875,0 -15.84625,11.4925 -15.89125,11.60875 -0.0887,0.2325 -0.0887,0.49125 0,0.725 0.045,0.115 4.6525,11.6075 15.89125,11.6075 11.23875,0 15.8475,-11.4925 15.8925,-11.6075 0.09,-0.23375 0.09,-0.4925 0,-0.725" />
    <path
       inkscape:connector-curvature="0"
       id="path1810"
       style="fill:#00ff00;fill-opacity:1;fill-rule:nonzero;stroke:none"
       d="m 331.4983,487.57759 c -2.2025,0 -3.99,-1.78625 -3.99,-3.98875 0,-2.2025 1.7875,-3.99 3.99,-3.99 2.2025,0 3.99,1.7875 3.99,3.99 0,2.2025 -1.7875,3.98875 -3.99,3.98875 m 0,-9.97375 c -3.305,0 -5.98375,2.68 -5.98375,5.985 0,3.305 2.67875,5.98375 5.98375,5.98375 3.30625,0 5.985,-2.67875 5.985,-5.98375 0,-3.305 -2.67875,-5.985 -5.985,-5.985" />
  </g>
</svg>
