<?xml version="1.0" encoding="UTF-8" standalone="no"?>
<!-- Created with Inkscape (http://www.inkscape.org/) -->

<svg
   xmlns:dc="http://purl.org/dc/elements/1.1/"
   xmlns:cc="http://creativecommons.org/ns#"
   xmlns:rdf="http://www.w3.org/1999/02/22-rdf-syntax-ns#"
   xmlns:svg="http://www.w3.org/2000/svg"
   xmlns="http://www.w3.org/2000/svg"
   xmlns:sodipodi="http://sodipodi.sourceforge.net/DTD/sodipodi-0.dtd"
   xmlns:inkscape="http://www.inkscape.org/namespaces/inkscape"
   width="35.630554mm"
   height="35.630554mm"
   viewBox="0 0 126.25 126.24999"
   id="svg3801"
   version="1.1"
   inkscape:version="0.91 r"
   sodipodi:docname="mirar_6.svg">
  <defs
     id="defs3803">
    <clipPath
       clipPathUnits="userSpaceOnUse"
       id="clipPath542">
      <path
         d="m 1006.973,201.488 c 0,-27.063 21.938,-49 49,-49 l 0,0 c 27.063,0 49,21.937 49,49 l 0,0 c 0,27.062 -21.937,48.999 -49,48.999 l 0,0 c -27.062,0 -49,-21.937 -49,-48.999"
         id="path544"
         inkscape:connector-curvature="0" />
    </clipPath>
    <clipPath
       clipPathUnits="userSpaceOnUse"
       id="clipPath578">
      <path
         d="m 1129.618,201.488 c 0,-27.063 21.937,-49 48.999,-49 l 0,0 c 27.063,0 49.001,21.937 49.001,49 l 0,0 c 0,27.062 -21.938,48.999 -49.001,48.999 l 0,0 c -27.062,0 -48.999,-21.937 -48.999,-48.999"
         id="path580"
         inkscape:connector-curvature="0" />
    </clipPath>
  </defs>
  <sodipodi:namedview
     id="base"
     pagecolor="#ffffff"
     bordercolor="#666666"
     borderopacity="1.0"
     inkscape:pageopacity="0.0"
     inkscape:pageshadow="2"
     inkscape:zoom="1.979899"
     inkscape:cx="56.679791"
     inkscape:cy="85.607855"
     inkscape:document-units="px"
     inkscape:current-layer="layer1"
     showgrid="false"
     fit-margin-top="0"
     fit-margin-left="0"
     fit-margin-right="0"
     fit-margin-bottom="0"
     inkscape:window-width="1916"
     inkscape:window-height="1049"
     inkscape:window-x="0"
     inkscape:window-y="25"
     inkscape:window-maximized="1" />
  <metadata
     id="metadata3806">
    <rdf:RDF>
      <cc:Work
         rdf:about="">
        <dc:format>image/svg+xml</dc:format>
        <dc:type
           rdf:resource="http://purl.org/dc/dcmitype/StillImage" />
        <dc:title></dc:title>
      </cc:Work>
    </rdf:RDF>
  </metadata>
  <g
     inkscape:label="Layer 1"
     inkscape:groupmode="layer"
     id="layer1"
     transform="translate(397.41071,-580.66578)">
    <path
       d="m -334.28758,628.16765 c -8.62875,0 -15.6225,6.99625 -15.6225,15.625 0,8.62875 6.99375,15.62125 15.6225,15.62125 8.63,0 15.62625,-6.9925 15.62625,-15.62125 0,-8.62875 -6.99625,-15.625 -15.62625,-15.625"
       style="fill:#00ff00;fill-opacity:1;fill-rule:nonzero;stroke:none"
       id="path560"
       inkscape:connector-curvature="0" />
    <g
       transform="matrix(1.2500001,0,0,-1.2500001,-1807.406,896.02317)"
       id="g574">
      <g
         id="g576"
         clip-path="url(#clipPath578)">
        <g
           id="g582"
           transform="translate(1140.5769,201.7859)">
          <path
             d="M 0,0 C 0,0 18.085,-6.903 37.919,-6.903 57.752,-6.903 75.838,0 75.838,0 75.838,0 57.752,6.903 37.919,6.903 18.085,6.903 0,0 0,0 Z"
             style="fill:none;stroke:#00ff00;stroke-width:7;stroke-linecap:butt;stroke-linejoin:miter;stroke-miterlimit:10;stroke-dasharray:none;stroke-opacity:1"
             id="path584"
             inkscape:connector-curvature="0" />
        </g>
      </g>
    </g>
  </g>
</svg>
