<?xml version="1.0" encoding="UTF-8" standalone="no"?>
<!-- Created with Inkscape (http://www.inkscape.org/) -->

<svg
   xmlns:dc="http://purl.org/dc/elements/1.1/"
   xmlns:cc="http://creativecommons.org/ns#"
   xmlns:rdf="http://www.w3.org/1999/02/22-rdf-syntax-ns#"
   xmlns:svg="http://www.w3.org/2000/svg"
   xmlns="http://www.w3.org/2000/svg"
   xmlns:sodipodi="http://sodipodi.sourceforge.net/DTD/sodipodi-0.dtd"
   xmlns:inkscape="http://www.inkscape.org/namespaces/inkscape"
   width="32.151505mm"
   height="29.802971mm"
   viewBox="0 0 113.92266 105.60108"
   id="svg5447"
   version="1.1"
   inkscape:version="0.91 r"
   sodipodi:docname="share_click.svg">
  <defs
     id="defs5449" />
  <sodipodi:namedview
     id="base"
     pagecolor="#ffffff"
     bordercolor="#666666"
     borderopacity="1.0"
     inkscape:pageopacity="0.0"
     inkscape:pageshadow="2"
     inkscape:zoom="3.959798"
     inkscape:cx="26.322782"
     inkscape:cy="82.527686"
     inkscape:document-units="px"
     inkscape:current-layer="layer1"
     showgrid="false"
     fit-margin-top="0"
     fit-margin-left="0"
     fit-margin-right="0"
     fit-margin-bottom="0"
     inkscape:window-width="1916"
     inkscape:window-height="1049"
     inkscape:window-x="0"
     inkscape:window-y="25"
     inkscape:window-maximized="1" />
  <metadata
     id="metadata5452">
    <rdf:RDF>
      <cc:Work
         rdf:about="">
        <dc:format>image/svg+xml</dc:format>
        <dc:type
           rdf:resource="http://purl.org/dc/dcmitype/StillImage" />
        <dc:title></dc:title>
      </cc:Work>
    </rdf:RDF>
  </metadata>
  <g
     inkscape:label="Layer 1"
     inkscape:groupmode="layer"
     id="layer1"
     transform="translate(-541.10593,-407.10518)">
    <g
       id="g442"
       transform="matrix(1.25,0,0,-1.25,545.65468,497.39251)">
      <path
         d="m 0,0 c 0,6.219 4.696,11.404 10.917,11.404 1.004,0 1.82,0.813 1.82,1.817 0,1.005 -0.816,1.821 -1.82,1.821 C 2.688,15.042 -3.639,8.226 -3.639,0 c 0,-0.721 0.148,-1.417 0.437,-2.071 0.303,-0.681 0.967,-1.082 1.665,-1.082 0.247,0 0.497,0.05 0.738,0.156 0.919,0.411 1.331,1.485 0.923,2.403 C 0.042,-0.408 0,-0.208 0,0 m 11.387,23.392 c 0.139,0 0.279,0.015 0.417,0.049 0.977,0.228 1.586,1.206 1.357,2.186 -0.283,1.201 -0.424,2.459 -0.424,3.741 0,7.148 4.489,12.964 10.006,12.964 1.436,0 2.825,-0.39 4.127,-1.161 0.862,-0.512 1.98,-0.226 2.491,0.64 0.511,0.864 0.226,1.981 -0.639,2.493 -1.845,1.091 -3.91,1.667 -5.979,1.667 -7.525,0 -13.647,-7.449 -13.647,-16.603 0,-1.561 0.176,-3.099 0.521,-4.57 0.199,-0.84 0.945,-1.406 1.77,-1.406 M 39.665,7.764 c -1.005,0 -1.82,-0.816 -1.82,-1.822 0,-1.003 0.815,-1.818 1.82,-1.818 6.218,0 11.279,-5.062 11.279,-11.281 0,-0.801 -0.652,-1.456 -1.453,-1.456 l -42.575,0 c -0.803,0 -1.457,0.655 -1.457,1.456 0,6.219 5.063,11.281 11.282,11.281 1.006,0 1.819,0.815 1.819,1.818 0,1.006 -0.813,1.822 -1.819,1.822 C 8.512,7.764 1.82,1.07 1.82,-7.157 c 0,-2.811 2.287,-5.094 5.096,-5.094 l 42.575,0 c 2.806,0 5.092,2.283 5.092,5.094 0,8.227 -6.692,14.921 -14.918,14.921 M 38.211,22.548 C 38.207,15.397 33.718,9.58 28.201,9.58 c -5.516,0 -10.006,5.817 -10.006,12.968 0,7.146 4.49,12.962 10.006,12.962 5.521,0 10.01,-5.816 10.01,-12.962 m -23.656,0 c 0,-9.156 6.122,-16.606 13.646,-16.606 7.525,0 13.645,7.45 13.645,16.606 0.002,4.359 -1.368,8.473 -3.861,11.589 -2.585,3.231 -6.062,5.011 -9.784,5.011 -7.524,0 -13.646,-7.446 -13.646,-16.6"
         style="fill:#00ff00;fill-opacity:1;fill-rule:nonzero;stroke:none"
         id="path444"
         inkscape:connector-curvature="0" />
    </g>
    <g
       id="g450"
       transform="matrix(1.25,0,0,-1.25,646.21528,439.92864)"
       style="fill:#202020;fill-opacity:1">
      <path
         d="m 0,0 c 0,-10.61 -8.601,-19.209 -19.209,-19.209 -10.608,0 -19.207,8.599 -19.207,19.209 0,10.605 8.599,19.208 19.207,19.208 C -8.601,19.208 0,10.605 0,0 Z"
         style="fill:#202020;fill-opacity:1;stroke:#ffffff;stroke-width:4;stroke-linecap:butt;stroke-linejoin:miter;stroke-miterlimit:10;stroke-dasharray:none;stroke-opacity:1"
         id="path452"
         inkscape:connector-curvature="0" />
    </g>
    <g
       style="fill:#202020;fill-opacity:1"
       transform="matrix(1.5476851,0,0,-1.5476851,651.93321,439.92849)"
       id="g6139">
      <path
         inkscape:connector-curvature="0"
         id="path6141"
         style="fill:#202020;fill-opacity:1;stroke:#ffffff;stroke-width:4;stroke-linecap:butt;stroke-linejoin:miter;stroke-miterlimit:10;stroke-dasharray:none;stroke-opacity:1"
         d="m 0,0 c 0,-10.61 -8.601,-19.209 -19.209,-19.209 -10.608,0 -19.207,8.599 -19.207,19.209 0,10.605 8.599,19.208 19.207,19.208 C -8.601,19.208 0,10.605 0,0 Z" />
    </g>
    <g
       id="g454"
       transform="matrix(1.25,0,0,-1.25,622.20428,428.68101)">
      <path
         d="M 0,0 0,-17.995"
         style="fill:none;stroke:#ffffff;stroke-width:4;stroke-linecap:round;stroke-linejoin:miter;stroke-miterlimit:10;stroke-dasharray:none;stroke-opacity:1"
         id="path456"
         inkscape:connector-curvature="0" />
    </g>
    <g
       id="g458"
       transform="matrix(1.25,0,0,-1.25,610.95828,439.92864)">
      <path
         d="M 0,0 17.995,0"
         style="fill:none;stroke:#ffffff;stroke-width:4;stroke-linecap:round;stroke-linejoin:miter;stroke-miterlimit:10;stroke-dasharray:none;stroke-opacity:1"
         id="path460"
         inkscape:connector-curvature="0" />
    </g>
  </g>
</svg>
