<?xml version="1.0" encoding="UTF-8" standalone="no"?>
<!-- Created with Inkscape (http://www.inkscape.org/) -->

<svg
   xmlns:dc="http://purl.org/dc/elements/1.1/"
   xmlns:cc="http://creativecommons.org/ns#"
   xmlns:rdf="http://www.w3.org/1999/02/22-rdf-syntax-ns#"
   xmlns:svg="http://www.w3.org/2000/svg"
   xmlns="http://www.w3.org/2000/svg"
   xmlns:sodipodi="http://sodipodi.sourceforge.net/DTD/sodipodi-0.dtd"
   xmlns:inkscape="http://www.inkscape.org/namespaces/inkscape"
   width="32.151505mm"
   height="29.802971mm"
   viewBox="0 0 113.92266 105.60108"
   id="svg5447"
   version="1.1"
   inkscape:version="0.91 r13725"
   sodipodi:docname="share_click.svg">
  <defs
     id="defs5449" />
  <sodipodi:namedview
     id="base"
     pagecolor="#ffffff"
     bordercolor="#666666"
     borderopacity="1.0"
     inkscape:pageopacity="0.0"
     inkscape:pageshadow="2"
     inkscape:zoom="2.8"
     inkscape:cx="76.416737"
     inkscape:cy="42.169646"
     inkscape:document-units="px"
     inkscape:current-layer="layer1"
     showgrid="false"
     fit-margin-top="0"
     fit-margin-left="0"
     fit-margin-right="0"
     fit-margin-bottom="0"
     inkscape:window-width="1440"
     inkscape:window-height="851"
     inkscape:window-x="0"
     inkscape:window-y="1"
     inkscape:window-maximized="1" />
  <metadata
     id="metadata5452">
    <rdf:RDF>
      <cc:Work
         rdf:about="">
        <dc:format>image/svg+xml</dc:format>
        <dc:type
           rdf:resource="http://purl.org/dc/dcmitype/StillImage" />
        <dc:title />
      </cc:Work>
    </rdf:RDF>
  </metadata>
  <g
     inkscape:label="Layer 1"
     inkscape:groupmode="layer"
     id="layer1"
     transform="translate(-541.10593,-407.10518)">
    <g
       id="g450"
       transform="matrix(1.25,0,0,-1.25,646.21528,439.92864)"
       style="fill:#202020;fill-opacity:1">
      <path
         d="m 0,0 c 0,-10.61 -8.601,-19.209 -19.209,-19.209 -10.608,0 -19.207,8.599 -19.207,19.209 0,10.605 8.599,19.208 19.207,19.208 C -8.601,19.208 0,10.605 0,0 Z"
         style="fill:#202020;fill-opacity:1;stroke:#ffffff;stroke-width:4;stroke-linecap:butt;stroke-linejoin:miter;stroke-miterlimit:10;stroke-dasharray:none;stroke-opacity:1"
         id="path452"
         inkscape:connector-curvature="0" />
    </g>
    <g
       style="fill:#202020;fill-opacity:1"
       transform="matrix(1.5476851,0,0,-1.5476851,651.93321,439.92849)"
       id="g6139">
      <path
         inkscape:connector-curvature="0"
         id="path6141"
         style="fill:#202020;fill-opacity:1;stroke:#ffffff;stroke-width:4;stroke-linecap:butt;stroke-linejoin:miter;stroke-miterlimit:10;stroke-dasharray:none;stroke-opacity:1"
         d="m 0,0 c 0,-10.61 -8.601,-19.209 -19.209,-19.209 -10.608,0 -19.207,8.599 -19.207,19.209 0,10.605 8.599,19.208 19.207,19.208 C -8.601,19.208 0,10.605 0,0 Z" />
    </g>
    <g
       id="g454"
       transform="matrix(1.25,0,0,-1.25,622.20428,428.68101)">
      <path
         d="M 0,0 0,-17.995"
         style="fill:none;stroke:#ffffff;stroke-width:4;stroke-linecap:round;stroke-linejoin:miter;stroke-miterlimit:10;stroke-dasharray:none;stroke-opacity:1"
         id="path456"
         inkscape:connector-curvature="0" />
    </g>
    <path
       inkscape:connector-curvature="0"
       id="path460"
       style="fill:none;stroke:#ffffff;stroke-width:4.48791122;stroke-linecap:round;stroke-linejoin:miter;stroke-miterlimit:10;stroke-dasharray:none;stroke-opacity:1"
       d="m 606.99956,437.05444 14.84482,-10.39446" />
    <path
       style="fill:none;fill-opacity:1;stroke:#00ff00;stroke-width:2.99506211;stroke-miterlimit:4;stroke-dasharray:none;stroke-opacity:1"
       d="m 546.75434,511.11025 c -2.07318,-0.45085 -3.70123,-1.63469 -4.06907,-2.95881 -0.0983,-0.35394 -0.15925,-5.11476 -0.15981,-12.48547 l -8.6e-4,-10.20192 10.76886,0 10.76884,0 -0.10733,0.361 c -0.70267,2.36335 -0.80643,6.84438 1.32242,10.51483 2.77043,4.77663 7.79514,7.62066 13.47551,7.62726 4.0494,0.005 7.80423,-1.4525 10.64299,-4.13045 1.5189,-1.43285 2.45586,-2.71637 3.3675,-4.61306 1.62575,-3.3824 1.61802,-6.67325 0.95136,-8.81525 l -0.29392,-0.94433 11.05421,0 11.05421,0 0,10.26354 c 0,8.62381 -0.0521,12.14894 -0.18622,12.59652 -0.41665,1.3907 -1.91198,2.48511 -3.89459,2.85042 -1.52248,0.28051 -63.39128,0.21905 -64.69405,-0.0644 z m 29.78557,-12.68534 c -2.52526,-0.54237 -5.31366,-2.54101 -6.62295,-4.74715 -1.01851,-1.71613 -1.44167,-3.28894 -1.44004,-5.35235 0.003,-2.98049 0.87278,-5.07465 3.00813,-7.23744 1.02052,-1.03361 1.56441,-1.43791 2.64812,-1.96839 3.10233,-1.51864 6.20267,-1.5146 9.29577,0.0121 2.59356,1.28017 4.6448,3.86357 5.38379,6.78054 0.31076,1.22668 0.31076,3.59962 0,4.82629 -1.38769,5.47758 -6.7935,8.86317 -12.27282,7.68635 z m 4.16504,-6.64644 c 1.49236,-0.76134 2.31192,-2.09608 2.31733,-3.77396 0.005,-1.72416 -0.79635,-3.00057 -2.39089,-3.80558 -2.91184,-1.47006 -6.41889,1.17556 -5.92492,4.46961 0.16635,1.10934 0.97886,2.30203 1.97292,2.89603 0.47268,0.28247 1.04985,0.54669 1.28256,0.58718 0.75542,0.13139 2.11694,-0.054 2.743,-0.37328 z m -38.18039,-16.35086 c 0,-4.35605 0.0401,-5.24013 0.26997,-5.95185 0.46998,-1.4552 1.90035,-2.73973 3.82003,-3.4305 0.31236,-0.1124 3.56775,-0.20367 9.22015,-0.25851 l 8.73734,-0.0848 1.91987,-3.16887 1.91988,-3.16888 10.36171,0.004 10.3617,0.004 1.92542,3.20419 1.9254,3.20418 8.59301,8.6e-4 c 8.3351,8.5e-4 8.6233,0.0113 9.60215,0.3418 2.05511,0.69401 3.74598,2.23129 4.18235,3.80244 0.0953,0.34333 0.16425,2.68658 0.16478,5.60409 l 8.5e-4,5.0141 -11.67273,-0.006 -11.67271,-0.006 -0.64179,-1.0542 c -1.7498,-2.87415 -4.97828,-5.19782 -8.59479,-6.18602 -1.19305,-0.32599 -1.70424,-0.36872 -4.32143,-0.36117 -2.7572,0.008 -3.06854,0.0394 -4.37737,0.442 -3.56104,1.09548 -6.26049,3.07043 -8.21566,6.01074 l -0.77138,1.16008 -11.3684,0 -11.36838,0 0,-5.11597 z m 4.8135,-16.27733 0,-1.60449 5.69597,0 5.69596,0 0,1.60449 0,1.6045 -5.69596,0 -5.69597,0 z"
       id="path3426"
       inkscape:connector-curvature="0"
       sodipodi:nodetypes="csscccsscssscccsssccsscssssssccsscccccsscccccccscsscccssccscccccccccccccc" />
    <path
       d="M 636.97709,436.9065 622.13227,426.51204"
       style="fill:none;stroke:#ffffff;stroke-width:4.48791122;stroke-linecap:round;stroke-linejoin:miter;stroke-miterlimit:10;stroke-dasharray:none;stroke-opacity:1"
       id="path4271"
       inkscape:connector-curvature="0" />
  </g>
</svg>
