<?xml version="1.0" encoding="UTF-8" standalone="no"?>
<!-- Created with Inkscape (http://www.inkscape.org/) -->

<svg
   xmlns:dc="http://purl.org/dc/elements/1.1/"
   xmlns:cc="http://creativecommons.org/ns#"
   xmlns:rdf="http://www.w3.org/1999/02/22-rdf-syntax-ns#"
   xmlns:svg="http://www.w3.org/2000/svg"
   xmlns="http://www.w3.org/2000/svg"
   xmlns:sodipodi="http://sodipodi.sourceforge.net/DTD/sodipodi-0.dtd"
   xmlns:inkscape="http://www.inkscape.org/namespaces/inkscape"
   width="35.630554mm"
   height="35.630554mm"
   viewBox="0 0 126.24999 126.24999"
   id="svg7120"
   version="1.1"
   inkscape:version="0.91 r"
   sodipodi:docname="termometro_1.svg">
  <defs
     id="defs7122" />
  <sodipodi:namedview
     id="base"
     pagecolor="#ffffff"
     bordercolor="#666666"
     borderopacity="1.0"
     inkscape:pageopacity="0.0"
     inkscape:pageshadow="2"
     inkscape:zoom="1.4"
     inkscape:cx="145.7418"
     inkscape:cy="-83.938995"
     inkscape:document-units="px"
     inkscape:current-layer="layer1"
     showgrid="false"
     inkscape:window-width="1362"
     inkscape:window-height="737"
     inkscape:window-x="0"
     inkscape:window-y="25"
     inkscape:window-maximized="1"
     fit-margin-top="0"
     fit-margin-left="0"
     fit-margin-right="0"
     fit-margin-bottom="0" />
  <metadata
     id="metadata7125">
    <rdf:RDF>
      <cc:Work
         rdf:about="">
        <dc:format>image/svg+xml</dc:format>
        <dc:type
           rdf:resource="http://purl.org/dc/dcmitype/StillImage" />
        <dc:title></dc:title>
      </cc:Work>
    </rdf:RDF>
  </metadata>
  <g
     inkscape:label="Layer 1"
     inkscape:groupmode="layer"
     id="layer1"
     transform="translate(-190.24955,-262.15976)">
    <path
       inkscape:connector-curvature="0"
       id="path1814"
       style="fill:none;stroke:#cfd1d2;stroke-width:3.75;stroke-linecap:butt;stroke-linejoin:miter;stroke-miterlimit:10;stroke-dasharray:none;stroke-opacity:1"
       d="m 314.62455,325.28476 c 0,33.8275 -27.42125,61.25 -61.25,61.25 -33.82875,0 -61.25,-27.4225 -61.25,-61.25 0,-33.8275 27.42125,-61.25 61.25,-61.25 33.82875,0 61.25,27.4225 61.25,61.25 z" />
    <path
       inkscape:connector-curvature="0"
       id="path1818"
       style="fill:#ffffff;fill-opacity:1;fill-rule:nonzero;stroke:none"
       d="m 227.38943,316.95963 0,16.65125 -15.7525,-8.32625 15.7525,-8.325 z" />
    <path
       inkscape:connector-curvature="0"
       id="path1822"
       style="fill:#ffffff;fill-opacity:1;fill-rule:nonzero;stroke:none"
       d="m 284.53917,333.61064 0,-16.65126 15.75126,8.325 -15.75126,8.32626 z" />
    <path
       inkscape:connector-curvature="0"
       id="path1826"
       style="fill:none;stroke:#cfd1d2;stroke-width:1.25;stroke-linecap:butt;stroke-linejoin:miter;stroke-miterlimit:10;stroke-dasharray:none;stroke-opacity:1"
       d="m 253.37455,341.17776 0,45.3575" />
    <path
       inkscape:connector-curvature="0"
       id="path1830"
       style="fill:none;stroke:#cfd1d2;stroke-width:1.25;stroke-linecap:butt;stroke-linejoin:miter;stroke-miterlimit:10;stroke-dasharray:none;stroke-opacity:1"
       d="m 253.37455,264.84176 0,44.55" />
    <path
       inkscape:connector-curvature="0"
       id="path1834"
       style="fill:#00ff00;fill-opacity:1;fill-rule:nonzero;stroke:none"
       d="m 253.37455,339.19101 c -7.66875,0 -13.90625,-6.23875 -13.90625,-13.90625 0,-7.6675 6.2375,-13.90625 13.90625,-13.90625 7.6675,0 13.90625,6.23875 13.90625,13.90625 0,7.6675 -6.23875,13.90625 -13.90625,13.90625 m 0,-29.79875 c -8.76375,0 -15.89375,7.12875 -15.89375,15.8925 0,8.76375 7.13,15.8925 15.89375,15.8925 8.76375,0 15.89375,-7.12875 15.89375,-15.8925 0,-8.76375 -7.13,-15.8925 -15.89375,-15.8925" />
    <path
       inkscape:connector-curvature="0"
       id="path1838"
       style="fill:#00ff00;fill-opacity:1;fill-rule:nonzero;stroke:none"
       d="m 253.37455,324.29176 c 0.5475,0 0.99375,0.445 0.99375,0.9925 0,0.54875 -0.44625,0.99375 -0.99375,0.99375 -0.54875,0 -0.99375,-0.445 -0.99375,-0.99375 0,-0.5475 0.445,-0.9925 0.99375,-0.9925 m 0,3.9725 c 1.6425,0 2.98,-1.33625 2.98,-2.98 0,-1.2925 -0.83375,-2.385 -1.98625,-2.79625 l 0,-8.13 c 0,-0.54875 -0.445,-0.9925 -0.99375,-0.9925 -0.54875,0 -0.99375,0.44375 -0.99375,0.9925 l 0,8.13 c -1.1525,0.41125 -1.98625,1.50375 -1.98625,2.79625 0,1.64375 1.3375,2.98 2.98,2.98" />
    <path
       inkscape:connector-curvature="0"
       id="path1842"
       style="fill:#00ff00;fill-opacity:1;fill-rule:nonzero;stroke:none"
       d="m 243.44167,325.28476 c 0,-0.54875 -0.44375,-0.9925 -0.99375,-0.9925 l -0.9925,0 c -0.54875,0 -0.99374,0.44375 -0.99374,0.9925 0,0.54875 0.44499,0.9925 0.99374,0.9925 l 0.9925,0 c 0.55,0 0.99375,-0.44375 0.99375,-0.9925" />
    <path
       inkscape:connector-curvature="0"
       id="path1846"
       style="fill:#00ff00;fill-opacity:1;fill-rule:nonzero;stroke:none"
       d="m 243.41367,329.88751 -0.85874,0.49625 c -0.47501,0.275 -0.63751,0.88375 -0.365,1.3575 0.18624,0.31875 0.51999,0.49625 0.86249,0.49625 0.16876,0 0.33875,-0.0425 0.495,-0.1325 l 0.86,-0.49625 c 0.47625,-0.275 0.63875,-0.88375 0.36375,-1.3575 -0.27625,-0.47625 -0.88375,-0.63875 -1.3575,-0.36375" />
    <path
       inkscape:connector-curvature="0"
       id="path1850"
       style="fill:#00ff00;fill-opacity:1;fill-rule:nonzero;stroke:none"
       d="m 258.34042,332.23789 -9.93125,0 c -0.55,0 -0.99374,0.44375 -0.99374,0.99374 0,0.54876 0.44374,0.99251 0.99374,0.99251 l 9.93125,0 c 0.54876,0 0.99376,-0.44375 0.99376,-0.99251 0,-0.54999 -0.445,-0.99374 -0.99376,-0.99374" />
    <path
       inkscape:connector-curvature="0"
       id="path1854"
       style="fill:#00ff00;fill-opacity:1;fill-rule:nonzero;stroke:none"
       d="m 244.40855,318.96101 -0.86,-0.49625 c -0.47375,-0.27375 -1.0825,-0.11125 -1.3575,0.36375 -0.27375,0.475 -0.11125,1.0825 0.36375,1.35625 l 0.86125,0.4975 c 0.155,0.09 0.32625,0.1325 0.49625,0.1325 0.34125,0 0.67625,-0.17875 0.86,-0.49625 0.27375,-0.475 0.11125,-1.0825 -0.36375,-1.3575" />
    <path
       inkscape:connector-curvature="0"
       id="path1858"
       style="fill:#00ff00;fill-opacity:1;fill-rule:nonzero;stroke:none"
       d="m 248.4063,316.68376 c 0.47625,-0.27375 0.64,-0.8825 0.36625,-1.35625 l -0.4975,-0.86125 c -0.2725,-0.475 -0.88125,-0.64 -1.355,-0.365 -0.47625,0.27375 -0.64,0.8825 -0.36625,1.35625 l 0.49625,0.86125 c 0.185,0.31875 0.51875,0.4975 0.8625,0.4975 0.1675,0 0.3375,-0.0425 0.49375,-0.1325" />
    <path
       inkscape:connector-curvature="0"
       id="path1862"
       style="fill:#00ff00;fill-opacity:1;fill-rule:nonzero;stroke:none"
       d="m 259.82967,314.10138 c -0.47374,-0.27499 -1.0825,-0.11124 -1.3575,0.36501 l -0.495,0.86124 c -0.27375,0.47375 -0.11,1.08251 0.36625,1.35626 0.15625,0.09 0.32375,0.1325 0.4925,0.1325 0.34375,0 0.67875,-0.17876 0.8625,-0.4975 l 0.49625,-0.86126 c 0.275,-0.47375 0.11125,-1.0825 -0.365,-1.35625" />
    <path
       inkscape:connector-curvature="0"
       id="path1866"
       style="fill:#00ff00;fill-opacity:1;fill-rule:nonzero;stroke:none"
       d="m 262.83742,320.81588 c 0.16875,0 0.33875,-0.0425 0.495,-0.1325 l 0.8625,-0.4975 c 0.475,-0.27499 0.6375,-0.8825 0.36375,-1.35749 -0.27625,-0.47626 -0.88375,-0.63751 -1.3575,-0.36376 l -0.86125,0.4975 c -0.475,0.27501 -0.63875,0.8825 -0.36375,1.35751 0.18375,0.31875 0.5175,0.49624 0.86125,0.49624" />
    <path
       inkscape:connector-curvature="0"
       id="path1870"
       style="fill:#00ff00;fill-opacity:1;fill-rule:nonzero;stroke:none"
       d="m 265.29355,324.29176 -0.99375,0 c -0.54875,0 -0.99375,0.44375 -0.99375,0.9925 0,0.55 0.445,0.99375 0.99375,0.99375 l 0.99375,0 c 0.54875,0 0.99375,-0.44375 0.99375,-0.99375 0,-0.54875 -0.445,-0.9925 -0.99375,-0.9925" />
    <path
       inkscape:connector-curvature="0"
       id="path1874"
       style="fill:#00ff00;fill-opacity:1;fill-rule:nonzero;stroke:none"
       d="m 264.19243,330.38426 -0.86125,-0.49625 c -0.47626,-0.275 -1.08501,-0.11125 -1.35501,0.365 -0.27625,0.475 -0.11125,1.08125 0.36375,1.355 l 0.86125,0.49625 c 0.15625,0.0913 0.32751,0.13375 0.49625,0.13375 0.3425,0 0.6775,-0.17875 0.86125,-0.4975 0.27375,-0.475 0.10875,-1.0825 -0.36624,-1.35625" />
  </g>
</svg>
