<?xml version="1.0" encoding="UTF-8" standalone="no"?>
<!-- Created with Inkscape (http://www.inkscape.org/) -->

<svg
   xmlns:dc="http://purl.org/dc/elements/1.1/"
   xmlns:cc="http://creativecommons.org/ns#"
   xmlns:rdf="http://www.w3.org/1999/02/22-rdf-syntax-ns#"
   xmlns:svg="http://www.w3.org/2000/svg"
   xmlns="http://www.w3.org/2000/svg"
   xmlns:sodipodi="http://sodipodi.sourceforge.net/DTD/sodipodi-0.dtd"
   xmlns:inkscape="http://www.inkscape.org/namespaces/inkscape"
   width="35.630554mm"
   height="35.630554mm"
   viewBox="0 0 126.25 126.24999"
   id="svg3801"
   version="1.1"
   inkscape:version="0.91 r"
   sodipodi:docname="velocidad_7.svg">
  <defs
     id="defs3803">
    <clipPath
       clipPathUnits="userSpaceOnUse"
       id="clipPath542">
      <path
         d="m 1006.973,201.488 c 0,-27.063 21.938,-49 49,-49 l 0,0 c 27.063,0 49,21.937 49,49 l 0,0 c 0,27.062 -21.937,48.999 -49,48.999 l 0,0 c -27.062,0 -49,-21.937 -49,-48.999"
         id="path544"
         inkscape:connector-curvature="0" />
    </clipPath>
    <clipPath
       clipPathUnits="userSpaceOnUse"
       id="clipPath578">
      <path
         d="m 1129.618,201.488 c 0,-27.063 21.937,-49 48.999,-49 l 0,0 c 27.063,0 49.001,21.937 49.001,49 l 0,0 c 0,27.062 -21.938,48.999 -49.001,48.999 l 0,0 c -27.062,0 -48.999,-21.937 -48.999,-48.999"
         id="path580"
         inkscape:connector-curvature="0" />
    </clipPath>
    <clipPath
       clipPathUnits="userSpaceOnUse"
       id="clipPath258">
      <path
         d="m 717.019,520.952 49,0 0,-98 -49,0 0,98 z"
         id="path260"
         inkscape:connector-curvature="0" />
    </clipPath>
  </defs>
  <sodipodi:namedview
     id="base"
     pagecolor="#ffffff"
     bordercolor="#666666"
     borderopacity="1.0"
     inkscape:pageopacity="0.0"
     inkscape:pageshadow="2"
     inkscape:zoom="3.959798"
     inkscape:cx="86.314018"
     inkscape:cy="78.592385"
     inkscape:document-units="px"
     inkscape:current-layer="layer1"
     showgrid="false"
     fit-margin-top="0"
     fit-margin-left="0"
     fit-margin-right="0"
     fit-margin-bottom="0"
     inkscape:window-width="1916"
     inkscape:window-height="1049"
     inkscape:window-x="0"
     inkscape:window-y="25"
     inkscape:window-maximized="1" />
  <metadata
     id="metadata3806">
    <rdf:RDF>
      <cc:Work
         rdf:about="">
        <dc:format>image/svg+xml</dc:format>
        <dc:type
           rdf:resource="http://purl.org/dc/dcmitype/StillImage" />
        <dc:title></dc:title>
      </cc:Work>
    </rdf:RDF>
  </metadata>
  <g
     inkscape:label="Layer 1"
     inkscape:groupmode="layer"
     id="layer1"
     transform="translate(397.41071,-580.66578)">
    <g
       id="g70"
       transform="matrix(1.2500001,0,0,-1.2500001,-376.8694,646.2504)">
      <path
         d="m 0,0 c 0,1.049 -0.85,1.896 -1.9,1.896 l -1.898,0 c -1.05,0 -1.899,-0.847 -1.899,-1.896 0,-1.05 0.849,-1.9 1.899,-1.9 l 1.898,0 C -0.85,-1.9 0,-1.05 0,0"
         style="fill:#00ff00;fill-opacity:1;fill-rule:nonzero;stroke:none"
         id="path72"
         inkscape:connector-curvature="0" />
    </g>
    <g
       id="g74"
       transform="matrix(1.2500001,0,0,-1.2500001,-375.45952,668.87665)">
      <path
         d="m 0,0 -1.211,-0.702 c -0.669,-0.386 -0.898,-1.242 -0.513,-1.911 0.262,-0.45 0.731,-0.699 1.214,-0.699 0.238,0 0.478,0.059 0.698,0.187 l 1.211,0.699 c 0.671,0.388 0.9,1.244 0.513,1.913 C 1.523,0.158 0.667,0.387 0,0"
         style="fill:#00ff00;fill-opacity:1;fill-rule:nonzero;stroke:none"
         id="path76"
         inkscape:connector-curvature="0" />
    </g>
    <g
       id="g78"
       transform="matrix(1.2500001,0,0,-1.2500001,-371.33902,622.57303)">
      <path
         d="m 0,0 -1.907,1.098 c -1.048,0.607 -2.395,0.25 -3.007,-0.806 -0.605,-1.049 -0.246,-2.396 0.807,-3.005 l 1.908,-1.099 c 0.344,-0.201 0.722,-0.295 1.099,-0.295 0.757,0 1.497,0.398 1.907,1.099 C 1.412,-1.953 1.052,-0.608 0,0"
         style="fill:#00ff00;fill-opacity:1;fill-rule:nonzero;stroke:none"
         id="path80"
         inkscape:connector-curvature="0" />
    </g>
    <g
       id="g82"
       transform="matrix(1.2500001,0,0,-1.2500001,-354.37377,611.8259)">
      <path
         d="M 0,0 C 1.282,0.736 1.723,2.372 0.987,3.646 L -0.354,5.967 C -1.087,7.246 -2.723,7.689 -4.002,6.949 -5.282,6.212 -5.723,4.574 -4.987,3.298 l 1.335,-2.321 c 0.499,-0.856 1.399,-1.339 2.325,-1.339 0.451,0 0.907,0.118 1.327,0.362"
         style="fill:#00ff00;fill-opacity:1;fill-rule:nonzero;stroke:none"
         id="path84"
         inkscape:connector-curvature="0" />
    </g>
    <g
       id="g86"
       transform="matrix(1.2500001,0,0,-1.2500001,-309.43988,603.20465)">
      <path
         d="m 0,0 c -1.457,0.848 -3.334,0.34 -4.18,-1.123 l -1.525,-2.654 c -0.842,-1.459 -0.338,-3.33 1.127,-4.172 0.482,-0.28 1,-0.414 1.519,-0.414 1.061,0 2.09,0.552 2.655,1.531 l 1.529,2.656 C 1.971,-2.717 1.467,-0.842 0,0"
         style="fill:#00ff00;fill-opacity:1;fill-rule:nonzero;stroke:none"
         id="path88"
         inkscape:connector-curvature="0" />
    </g>
    <g
       id="g90"
       transform="matrix(1.2500001,0,0,-1.2500001,-297.86039,629.0519)">
      <path
         d="M 0,0 C 0.518,0 1.041,0.135 1.525,0.414 L 4.18,1.941 C 5.643,2.789 6.143,4.66 5.301,6.119 4.451,7.59 2.578,8.082 1.119,7.238 L -1.533,5.709 C -2.996,4.863 -3.5,2.992 -2.654,1.531 -2.086,0.549 -1.061,0 0,0"
         style="fill:#00ff00;fill-opacity:1;fill-rule:nonzero;stroke:none"
         id="path92"
         inkscape:connector-curvature="0" />
    </g>
    <g
       id="g94"
       transform="matrix(1.2500001,0,0,-1.2500001,-289.57201,641.26678)">
      <path
         d="m 0,0 -3.99,0 c -2.209,0 -3.993,-1.781 -3.993,-3.985 0,-2.206 1.784,-3.993 3.993,-3.993 l 3.99,0 c 2.207,0 3.993,1.787 3.993,3.993 C 3.993,-1.781 2.207,0 0,0"
         style="fill:#00ff00;fill-opacity:1;fill-rule:nonzero;stroke:none"
         id="path96"
         inkscape:connector-curvature="0" />
    </g>
    <g
       id="g98"
       transform="matrix(1.2500001,0,0,-1.2500001,-291.13021,663.55565)">
      <path
         d="M 0,0 -3.522,2.034 C -5.466,3.156 -7.951,2.488 -9.058,0.542 -10.185,-1.402 -9.511,-3.877 -7.57,-5 l 3.519,-2.028 c 0.64,-0.371 1.338,-0.542 2.027,-0.542 1.402,0 2.768,0.731 3.522,2.031 C 2.615,-3.597 1.941,-1.115 0,0"
         style="fill:#00ff00;fill-opacity:1;fill-rule:nonzero;stroke:none"
         id="path100"
         inkscape:connector-curvature="0" />
    </g>
    <g
       id="g102"
       transform="matrix(1.2500001,0,0,-1.2500001,-334.29015,596.9584)">
      <path
         d="m 0,0 c -1.652,0 -2.988,-1.339 -2.988,-2.994 l 0,-2.989 c 0,-1.655 1.336,-2.992 2.988,-2.992 1.654,0 2.994,1.337 2.994,2.992 l 0,2.989 C 2.994,-1.339 1.654,0 0,0"
         style="fill:#00ff00;fill-opacity:1;fill-rule:nonzero;stroke:none"
         id="path104"
         inkscape:connector-curvature="0" />
    </g>
    <g
       id="g106"
       transform="matrix(1.2500001,0,0,-1.2500001,-352.40377,686.88815)">
      <path
         d="m 0,0 c 0,-1.652 1.339,-2.988 2.994,-2.988 l 23.002,0 c 1.654,0 2.991,1.336 2.991,2.988 0,1.654 -1.337,2.994 -2.991,2.994 l -23.002,0 C 1.339,2.994 0,1.654 0,0"
         style="fill:#00ff00;fill-opacity:1;fill-rule:nonzero;stroke:none"
         id="path108"
         inkscape:connector-curvature="0" />
    </g>
    <g
       id="g602"
       transform="matrix(-0.65155733,1.0667584,1.0667584,0.65155733,-331.23961,644.30618)"
       inkscape:transform-center-x="-14.300682"
       inkscape:transform-center-y="-6.5305724">
      <path
         d="M 0,0 C 0.817,1.477 2.683,2.014 4.155,1.2 5.635,0.381 6.169,-1.483 5.352,-2.96 4.533,-4.44 2.673,-4.976 1.192,-4.157 -0.279,-3.343 -0.819,-1.48 0,0 M 10.707,-5.921 C 13.155,-1.494 11.546,4.1 7.114,6.551 3.634,8.475 -0.555,7.858 -3.378,5.365 l -21.908,12.116 c -1.48,0.819 -3.337,0.281 -4.156,-1.199 -0.818,-1.48 -0.286,-3.339 1.194,-4.158 L -6.341,0.009 c -0.61,-3.717 1.094,-7.592 4.574,-9.517 4.432,-2.451 10.024,-0.842 12.474,3.587"
         style="fill:#00ff00;fill-opacity:1;fill-rule:nonzero;stroke:none"
         id="path604"
         inkscape:connector-curvature="0" />
    </g>
    <g
       id="g606"
       transform="matrix(1.2500001,0,0,-1.2500001,-376.8694,646.2504)">
      <path
         d="m 0,0 c 0,1.049 -0.85,1.896 -1.9,1.896 l -1.898,0 c -1.05,0 -1.899,-0.847 -1.899,-1.896 0,-1.05 0.849,-1.9 1.899,-1.9 l 1.898,0 C -0.85,-1.9 0,-1.05 0,0"
         style="fill:#00ff00;fill-opacity:1;fill-rule:nonzero;stroke:none"
         id="path608"
         inkscape:connector-curvature="0" />
    </g>
    <g
       id="g610"
       transform="matrix(1.2500001,0,0,-1.2500001,-375.45952,668.87665)">
      <path
         d="m 0,0 -1.211,-0.702 c -0.669,-0.386 -0.898,-1.242 -0.513,-1.911 0.262,-0.45 0.731,-0.699 1.214,-0.699 0.238,0 0.478,0.059 0.698,0.187 l 1.211,0.699 c 0.671,0.388 0.9,1.244 0.513,1.913 C 1.523,0.158 0.667,0.387 0,0"
         style="fill:#00ff00;fill-opacity:1;fill-rule:nonzero;stroke:none"
         id="path612"
         inkscape:connector-curvature="0" />
    </g>
    <g
       id="g614"
       transform="matrix(1.2500001,0,0,-1.2500001,-371.33902,622.57303)">
      <path
         d="m 0,0 -1.907,1.098 c -1.048,0.607 -2.395,0.25 -3.007,-0.806 -0.605,-1.049 -0.246,-2.396 0.807,-3.005 l 1.908,-1.099 c 0.344,-0.201 0.722,-0.295 1.099,-0.295 0.757,0 1.497,0.398 1.907,1.099 C 1.412,-1.953 1.052,-0.608 0,0"
         style="fill:#00ff00;fill-opacity:1;fill-rule:nonzero;stroke:none"
         id="path616"
         inkscape:connector-curvature="0" />
    </g>
    <g
       id="g618"
       transform="matrix(1.2500001,0,0,-1.2500001,-354.37377,611.8259)">
      <path
         d="M 0,0 C 1.282,0.736 1.723,2.372 0.987,3.646 L -0.354,5.967 C -1.087,7.246 -2.723,7.689 -4.002,6.949 -5.282,6.212 -5.723,4.574 -4.987,3.298 l 1.335,-2.321 c 0.499,-0.856 1.399,-1.339 2.325,-1.339 0.451,0 0.907,0.118 1.327,0.362"
         style="fill:#00ff00;fill-opacity:1;fill-rule:nonzero;stroke:none"
         id="path620"
         inkscape:connector-curvature="0" />
    </g>
    <g
       id="g622"
       transform="matrix(1.2500001,0,0,-1.2500001,-309.43988,603.20465)">
      <path
         d="m 0,0 c -1.457,0.848 -3.334,0.34 -4.18,-1.123 l -1.525,-2.654 c -0.842,-1.459 -0.338,-3.33 1.127,-4.172 0.482,-0.28 1,-0.414 1.519,-0.414 1.061,0 2.09,0.552 2.655,1.531 l 1.529,2.656 C 1.971,-2.717 1.467,-0.842 0,0"
         style="fill:#00ff00;fill-opacity:1;fill-rule:nonzero;stroke:none"
         id="path624"
         inkscape:connector-curvature="0" />
    </g>
    <g
       id="g638"
       transform="matrix(1.2500001,0,0,-1.2500001,-334.29015,596.9584)">
      <path
         d="m 0,0 c -1.652,0 -2.988,-1.339 -2.988,-2.994 l 0,-2.989 c 0,-1.655 1.336,-2.992 2.988,-2.992 1.654,0 2.994,1.337 2.994,2.992 l 0,2.989 C 2.994,-1.339 1.654,0 0,0"
         style="fill:#00ff00;fill-opacity:1;fill-rule:nonzero;stroke:none"
         id="path640"
         inkscape:connector-curvature="0" />
    </g>
  </g>
</svg>
